<svg width="24" height="24" viewBox="0 0 24 24" fill="none" xmlns="http://www.w3.org/2000/svg">
<g clip-path="url(#clip0_430_13683)">
<path d="M2.83335 17.041H5.125C6.13752 17.041 6.95835 17.8618 6.95835 18.8744V21.166C6.95835 22.1786 6.13752 22.9994 5.125 22.9994H2.83335C1.82083 22.9994 1 22.1786 1 21.166V18.8744C1 17.8618 1.82083 17.041 2.83335 17.041Z" fill="#4478FF"/>
<path d="M22.1918 17.3545C21.8894 17.1496 21.5323 17.0404 21.167 17.041H18.8753C17.8628 17.041 17.042 17.8618 17.042 18.8744V21.166C17.042 22.1786 17.8628 22.9994 18.8753 22.9994H21.167C22.1796 22.9994 23.0003 22.1786 23.0003 21.166V18.8744C23.0003 18.2649 22.6972 17.6953 22.1918 17.3545Z" fill="#4478FF"/>
<path d="M2.83335 9.02148H5.125C6.13752 9.02148 6.95835 9.84232 6.95835 10.8548V13.1465C6.95835 14.159 6.13752 14.9798 5.125 14.9798H2.83335C1.82083 14.9798 1 14.159 1 13.1465V10.8548C1 9.84227 1.82083 9.02148 2.83335 9.02148Z" fill="#4478FF"/>
<path d="M22.1918 9.33499C21.8894 9.13011 21.5323 9.02089 21.167 9.02149H18.8753C17.8628 9.02149 17.042 9.84232 17.042 10.8548V13.1465C17.042 14.159 17.8628 14.9798 18.8753 14.9798H21.167C22.1795 14.9798 23.0003 14.159 23.0003 13.1465V10.8548C23.0003 10.2453 22.6972 9.67569 22.1918 9.33499Z" fill="#4478FF"/>
<path d="M2.83335 1H5.125C6.13752 1 6.95835 1.82083 6.95835 2.83335V5.125C6.95835 6.13752 6.13752 6.95835 5.125 6.95835H2.83335C1.82083 6.95835 1 6.13752 1 5.125V2.83335C1 1.82083 1.82083 1 2.83335 1Z" fill="#4478FF"/>
<path d="M14.1704 17.3545C13.8679 17.1496 13.5108 17.0404 13.1455 17.041H10.8539C9.84134 17.041 9.02051 17.8618 9.02051 18.8744V21.166C9.02051 22.1785 9.84134 22.9994 10.8539 22.9994H13.1455C14.158 22.9994 14.9789 22.1786 14.9789 21.166V18.8744C14.9788 18.2649 14.6758 17.6953 14.1704 17.3545Z" fill="#4478FF"/>
<path d="M14.1704 9.33499C13.8679 9.13011 13.5108 9.02089 13.1455 9.02149H10.8539C9.84134 9.02149 9.02051 9.84232 9.02051 10.8548V13.1465C9.02051 14.159 9.84134 14.9798 10.8539 14.9798H13.1455C14.158 14.9798 14.9789 14.159 14.9789 13.1465V10.8548C14.9788 10.2453 14.6758 9.67569 14.1704 9.33499Z" fill="#4478FF"/>
<path d="M14.1704 1.3135C13.8679 1.10863 13.5108 0.999401 13.1455 1H10.8539C9.84134 1 9.02051 1.82083 9.02051 2.83335V5.125C9.02051 6.13752 9.84134 6.95835 10.8539 6.95835H13.1455C14.158 6.95835 14.9789 6.13752 14.9789 5.125V2.83335C14.9788 2.22384 14.6758 1.6542 14.1704 1.3135Z" fill="#4478FF"/>
<path d="M22.6868 1.8085C22.3461 1.3031 21.7765 1.00009 21.167 1H18.8753C17.8628 1 17.042 1.82083 17.042 2.83335V5.125C17.042 6.13752 17.8628 6.95835 18.8753 6.95835H21.167C22.1796 6.95835 23.0003 6.13752 23.0003 5.125V2.83335C23.0009 2.46803 22.8917 2.11096 22.6868 1.8085Z" fill="#4478FF"/>
</g>
<defs>
<clipPath id="clip0_430_13683">
<rect width="22" height="22" fill="white" transform="translate(1 1)"/>
</clipPath>
</defs>
</svg>
