<svg width="24" height="24" viewBox="0 0 24 24" fill="none" xmlns="http://www.w3.org/2000/svg">
<path d="M22.1942 9.29365L15.2413 2.33982C14.3808 1.48181 13.2152 1 12 1C10.7848 1 9.6192 1.48181 8.75867 2.33982L1.80576 9.29365C1.54948 9.54828 1.3463 9.85126 1.20799 10.185C1.06967 10.5187 0.998982 10.8766 1.00001 11.2379V20.2368C1.00001 20.9661 1.28974 21.6656 1.80547 22.1813C2.32119 22.6971 3.02066 22.9868 3.75001 22.9868H20.25C20.9793 22.9868 21.6788 22.6971 22.1945 22.1813C22.7103 21.6656 23 20.9661 23 20.2368V11.2379C23.001 10.8766 22.9303 10.5187 22.792 10.185C22.6537 9.85126 22.4505 9.54828 22.1942 9.29365ZM14.75 21.1535H9.25V17.5473C9.25 16.818 9.53973 16.1185 10.0555 15.6028C10.5712 15.087 11.2707 14.7973 12 14.7973C12.7293 14.7973 13.4288 15.087 13.9445 15.6028C14.4603 16.1185 14.75 16.818 14.75 17.5473V21.1535ZM21.1667 20.2368C21.1667 20.4799 21.0701 20.7131 20.8982 20.885C20.7263 21.0569 20.4931 21.1535 20.25 21.1535H16.5833V17.5473C16.5833 16.3317 16.1004 15.1659 15.2409 14.3064C14.3814 13.4469 13.2156 12.964 12 12.964C10.7844 12.964 9.61864 13.4469 8.7591 14.3064C7.89956 15.1659 7.41667 16.3317 7.41667 17.5473V21.1535H3.75001C3.50689 21.1535 3.27374 21.0569 3.10183 20.885C2.92992 20.7131 2.83334 20.4799 2.83334 20.2368V11.2379C2.83419 10.995 2.93068 10.7621 3.10193 10.5898L10.0548 3.63874C10.5716 3.12442 11.2709 2.83569 12 2.83569C12.7291 2.83569 13.4284 3.12442 13.9452 3.63874L20.8981 10.5926C21.0687 10.7642 21.1651 10.9959 21.1667 11.2379V20.2368Z" fill="#CCD6DE"/>
</svg>
