<svg width="24" height="24" viewBox="0 0 24 24" fill="none" xmlns="http://www.w3.org/2000/svg">
<path d="M22.2884 6.26442L19.528 2.53542C19.1886 2.06089 18.7409 1.67409 18.2221 1.40707C17.7033 1.14005 17.1283 1.00051 16.5448 1H7.45954C6.87888 0.999457 6.30639 1.13679 5.78919 1.4007C5.27199 1.66461 4.82485 2.04755 4.48459 2.518L1.67466 6.27358C1.21715 6.91863 0.980882 7.69448 1.00121 8.48501C1.02154 9.27554 1.29737 10.0382 1.78742 10.6589L9.84774 21.9596C10.1046 22.2848 10.432 22.5474 10.8052 22.7277C11.1784 22.9079 11.5877 23.001 12.0022 23C12.4237 22.9991 12.8395 22.9016 13.2175 22.7149C13.5954 22.5282 13.9255 22.2572 14.1823 21.9229L22.1784 10.7478C22.6904 10.1181 22.979 9.33625 22.9989 8.5249C23.0188 7.71355 22.7689 6.91853 22.2884 6.26442ZM18.0456 3.61342L20.8124 7.35158C20.8271 7.37175 20.8308 7.39558 20.8454 7.41667H16.3605L15.0514 2.83333H16.5448C16.8391 2.83425 17.1288 2.90553 17.3899 3.04124C17.651 3.17694 17.8758 3.37313 18.0456 3.61342ZM12.0022 18.5248L9.52687 9.25H14.4775L12.0022 18.5248ZM9.55071 7.41667L10.8599 2.83333H13.1445L14.4536 7.41667H9.55071ZM5.96702 3.60058C6.13713 3.36352 6.36119 3.17032 6.6207 3.03691C6.88021 2.9035 7.16773 2.83373 7.45954 2.83333H8.95297L7.64381 7.41667H3.12592C3.13876 7.3965 3.14242 7.37175 3.15709 7.3525L5.96702 3.60058ZM3.2451 9.54791C3.17891 9.45443 3.1221 9.35464 3.0755 9.25H7.63097L10.3758 19.5442L3.2451 9.54791ZM13.6258 19.5533L16.3761 9.25H20.9472C20.8881 9.38683 20.8134 9.51633 20.7244 9.63591L13.6258 19.5533Z" fill="#CCD6DE"/>
</svg>
