<svg width="20" height="20" viewBox="0 0 20 20" fill="none" xmlns="http://www.w3.org/2000/svg">
<path d="M19.0617 6.12056L0.833008 6.20465V5.45389C0.834221 4.44966 1.23701 3.48689 1.95304 2.77679C2.66906 2.06668 3.63984 1.66722 4.65245 1.66602H6.58356C6.93908 1.66631 7.2897 1.74825 7.60794 1.90541L10.0188 3.10541C10.1253 3.15603 10.2421 3.18194 10.3602 3.18117H15.3469C16.2099 3.18287 17.0468 3.47435 17.7214 4.00812C18.396 4.54188 18.8684 5.28647 19.0617 6.12056ZM19.1663 7.63571V14.5448C19.1651 15.549 18.7623 16.5118 18.0463 17.2219C17.3303 17.932 16.3595 18.3315 15.3469 18.3327H4.65245C3.63984 18.3315 2.66906 17.932 1.95304 17.2219C1.23701 16.5118 0.834221 15.549 0.833008 14.5448L0.833008 7.7198L19.1663 7.63571ZM13.0552 13.0297C13.0552 12.8287 12.9747 12.636 12.8315 12.494C12.6882 12.3519 12.4939 12.2721 12.2913 12.2721H10.7636V10.7569C10.7636 10.556 10.6831 10.3633 10.5398 10.2212C10.3966 10.0792 10.2023 9.99935 9.99967 9.99935C9.79708 9.99935 9.60278 10.0792 9.45952 10.2212C9.31627 10.3633 9.23578 10.556 9.23578 10.7569V12.2721H7.70801C7.50541 12.2721 7.31111 12.3519 7.16786 12.494C7.0246 12.636 6.94412 12.8287 6.94412 13.0297C6.94412 13.2306 7.0246 13.4233 7.16786 13.5653C7.31111 13.7074 7.50541 13.7872 7.70801 13.7872H9.23578V15.3024C9.23578 15.5033 9.31627 15.696 9.45952 15.8381C9.60278 15.9801 9.79708 16.06 9.99967 16.06C10.2023 16.06 10.3966 15.9801 10.5398 15.8381C10.6831 15.696 10.7636 15.5033 10.7636 15.3024V13.7872H12.2913C12.4939 13.7872 12.6882 13.7074 12.8315 13.5653C12.9747 13.4233 13.0552 13.2306 13.0552 13.0297Z" fill="#CCD6DE"/>
</svg>
