<svg width="22" height="24" viewBox="0 0 22 24" fill="none" xmlns="http://www.w3.org/2000/svg">
<path fill-rule="evenodd" clip-rule="evenodd" d="M14.6849 3.83145C15.5598 2.81746 16.1495 1.40518 15.9881 0C14.7273 0.048 13.202 0.805376 12.298 1.81816C11.4863 2.71695 10.7776 4.15308 10.9681 5.53066C12.3745 5.63505 13.81 4.84662 14.6849 3.83145ZM17.8386 12.75C17.8738 16.3824 21.1634 17.5907 21.1998 17.6063C21.1731 17.6915 20.6744 19.3279 19.467 21.0199C18.4222 22.4815 17.3387 23.9372 15.6313 23.9684C13.9544 23.9984 13.4144 23.0156 11.496 23.0156C9.57873 23.0156 8.9793 23.937 7.39212 23.9982C5.74428 24.057 4.48837 22.4169 3.43632 20.9602C1.28369 17.9806 -0.360517 12.5401 1.84794 8.86816C2.94488 7.04539 4.90458 5.88935 7.03294 5.86055C8.65045 5.83055 10.1782 6.90352 11.1671 6.90352C12.1561 6.90352 14.0126 5.61353 15.9638 5.80313C16.7805 5.83553 19.0739 6.11863 20.5458 8.18379C20.4268 8.25459 17.8095 9.71405 17.8386 12.75Z" fill="#425969"/>
</svg>
