<svg width="20" height="20" viewBox="0 0 20 20" fill="none" xmlns="http://www.w3.org/2000/svg">
<g clip-path="url(#clip0_471_5651)">
<g clip-path="url(#clip1_471_5651)">
<path d="M11.5273 19.1673C11.362 19.1673 11.2012 19.1137 11.069 19.0145L8.01342 16.7229C7.91855 16.6517 7.84155 16.5595 7.78851 16.4534C7.73548 16.3473 7.70787 16.2304 7.70787 16.1118V11.8187L2.34842 5.78933C1.96779 5.35993 1.71927 4.82975 1.63272 4.2625C1.54617 3.69525 1.62528 3.11507 1.86054 2.5917C2.0958 2.06833 2.4772 1.62404 2.9589 1.31223C3.44061 1.00041 4.00211 0.834347 4.57592 0.833984H15.4231C15.9969 0.834657 16.5583 1.001 17.0398 1.31302C17.5213 1.62505 17.9024 2.06948 18.1375 2.5929C18.3725 3.11633 18.4513 3.69649 18.3646 4.26365C18.2778 4.83082 18.0291 5.36086 17.6484 5.79009L12.2912 11.8187V18.4034C12.2912 18.606 12.2107 18.8003 12.0675 18.9436C11.9242 19.0868 11.7299 19.1673 11.5273 19.1673Z" fill="#CCD6DE"/>
</g>
</g>
<defs>
<clipPath id="clip0_471_5651">
<rect width="20" height="20" fill="white"/>
</clipPath>
<clipPath id="clip1_471_5651">
<rect width="18.3333" height="18.3333" fill="white" transform="translate(0.833008 0.833984)"/>
</clipPath>
</defs>
</svg>
