<svg width="18" height="19" viewBox="0 0 18 19" fill="none" xmlns="http://www.w3.org/2000/svg">
<g clip-path="url(#clip0_430_11586)">
<path d="M11.9996 6.50084C11.8589 6.36024 11.6682 6.28125 11.4693 6.28125C11.2705 6.28125 11.0797 6.36024 10.9391 6.50084L8.99959 8.44034L7.06009 6.50084C6.91864 6.36422 6.72919 6.28863 6.53254 6.29033C6.3359 6.29204 6.14779 6.37092 6.00873 6.50998C5.86968 6.64903 5.7908 6.83714 5.78909 7.03379C5.78738 7.23044 5.86298 7.41989 5.9996 7.56134L7.93909 9.50084L5.9996 11.4403C5.86298 11.5818 5.78738 11.7712 5.78909 11.9679C5.7908 12.1645 5.86968 12.3526 6.00873 12.4917C6.14779 12.6308 6.3359 12.7096 6.53254 12.7113C6.72919 12.7131 6.91864 12.6375 7.06009 12.5008L8.99959 10.5613L10.9391 12.5008C11.0805 12.6375 11.27 12.7131 11.4666 12.7113C11.6633 12.7096 11.8514 12.6308 11.9904 12.4917C12.1295 12.3526 12.2084 12.1645 12.2101 11.9679C12.2118 11.7712 12.1362 11.5818 11.9996 11.4403L10.0601 9.50084L11.9996 7.56134C12.1402 7.42069 12.2192 7.22996 12.2192 7.03109C12.2192 6.83222 12.1402 6.64149 11.9996 6.50084Z" fill="#CCD6DE"/>
<path d="M9 0.5C7.21997 0.5 5.47991 1.02784 3.99987 2.01677C2.51983 3.00571 1.36628 4.41131 0.685088 6.05585C0.00389957 7.70038 -0.17433 9.50998 0.172937 11.2558C0.520204 13.0016 1.37737 14.6053 2.63604 15.864C3.89472 17.1226 5.49836 17.9798 7.24419 18.3271C8.99002 18.6743 10.7996 18.4961 12.4442 17.8149C14.0887 17.1337 15.4943 15.9802 16.4832 14.5001C17.4722 13.0201 18 11.28 18 9.5C17.9974 7.11384 17.0484 4.82616 15.3611 3.13889C13.6738 1.45162 11.3862 0.502581 9 0.5V0.5ZM9 17C7.51664 17 6.0666 16.5601 4.83323 15.736C3.59986 14.9119 2.63856 13.7406 2.07091 12.3701C1.50325 10.9997 1.35473 9.49168 1.64411 8.03682C1.9335 6.58197 2.64781 5.24559 3.6967 4.1967C4.7456 3.14781 6.08197 2.4335 7.53683 2.14411C8.99168 1.85472 10.4997 2.00325 11.8701 2.5709C13.2406 3.13856 14.4119 4.09985 15.236 5.33322C16.0601 6.56659 16.5 8.01664 16.5 9.5C16.4978 11.4885 15.7069 13.3948 14.3009 14.8009C12.8948 16.2069 10.9885 16.9978 9 17Z" fill="#CCD6DE"/>
</g>
<defs>
<clipPath id="clip0_430_11586">
<rect width="18" height="18" fill="white" transform="translate(0 0.5)"/>
</clipPath>
</defs>
</svg>
