<svg width="24" height="24" viewBox="0 0 24 24" fill="none" xmlns="http://www.w3.org/2000/svg">
<path fill-rule="evenodd" clip-rule="evenodd" d="M5.66424 11.9986C5.66424 11.2365 5.79082 10.5058 6.01674 9.82051L2.06233 6.80078C1.29164 8.36558 0.857422 10.1288 0.857422 11.9986C0.857422 13.8669 1.2911 15.629 2.06073 17.1928L6.013 14.1672C5.78922 13.485 5.66424 12.757 5.66424 11.9986Z" fill="#FBBC05"/>
<path fill-rule="evenodd" clip-rule="evenodd" d="M12.6076 5.06562C14.2633 5.06562 15.7587 5.65229 16.9337 6.61229L20.3519 3.19896C18.269 1.38563 15.5985 0.265625 12.6076 0.265625C7.9642 0.265625 3.97348 2.92109 2.0625 6.80109L6.01691 9.82083C6.92807 7.05496 9.52535 5.06562 12.6076 5.06562Z" fill="#EB4335"/>
<path fill-rule="evenodd" clip-rule="evenodd" d="M12.6076 18.9329C9.52535 18.9329 6.92807 16.9436 6.01691 14.1777L2.0625 17.1969C3.97348 21.0775 7.9642 23.7329 12.6076 23.7329C15.4735 23.7329 18.2097 22.7153 20.2633 20.8087L16.5097 17.9068C15.4506 18.574 14.1169 18.9329 12.6076 18.9329Z" fill="#34A853"/>
<path fill-rule="evenodd" clip-rule="evenodd" d="M23.8233 11.9986C23.8233 11.3052 23.7165 10.5586 23.5563 9.86523H12.6074V14.3986H18.9097C18.5946 15.9442 17.7368 17.1324 16.5095 17.9058L20.2631 20.8076C22.4203 18.8055 23.8233 15.8231 23.8233 11.9986Z" fill="#4285F4"/>
</svg>
