<svg width="30" height="76" viewBox="0 0 30 76" fill="none" xmlns="http://www.w3.org/2000/svg">
<path d="M2.1558 50.2011C1.72453 48.9936 1.29326 47.786 0.948242 46.5784L1.0345 46.4922C1.29326 47.6997 1.81079 48.9073 2.1558 50.2011Z" fill="#FFCC00"/>
<path d="M10.7815 47.613H10.6953C10.5228 46.5779 10.264 45.5429 10.1777 44.5078H10.264C10.3502 45.5429 10.5228 46.5779 10.7815 47.613Z" fill="#FFCC00"/>
<path d="M8.2801 38.8146C7.50381 40.4534 5.34745 40.6259 5.77872 45.2836C5.86498 45.8012 5.95123 46.6637 6.12374 47.5262C5.77872 46.6637 5.51996 45.8874 5.34745 45.3699C3.96738 40.8847 2.24229 40.9709 1.12099 39.1596C0.775972 38.6421 0.603463 38.0383 0.430955 37.5207C0.258446 37.0032 0.172192 36.6582 0.172192 36.6582C0.0859375 37.3482 0.0859375 37.952 0.0859375 38.6421C0.0859375 39.2458 0.172192 39.8496 0.172192 40.4534C0.258446 41.5747 0.517209 42.6097 0.775972 43.5585C1.03473 44.5073 1.37975 45.3699 1.81102 46.0599C2.24229 46.8362 2.58731 47.44 3.10484 48.0438C3.53611 48.6476 3.96738 49.1651 4.39865 49.5963C4.82992 50.0276 5.34745 50.4589 5.69247 50.8902C6.12374 51.2352 6.46876 51.6665 6.90003 52.0115C7.24504 52.3565 7.59006 52.7015 7.93508 53.0465H8.02133C7.93508 52.6152 7.93508 52.0977 8.02133 51.6665C8.10759 51.1489 8.19384 50.6314 8.2801 50.1139C8.36635 49.5963 8.4526 48.9926 8.62511 48.475C8.79762 47.8713 8.88387 47.2675 8.97013 46.6637C9.4014 44.0761 9.57391 41.1434 9.05638 36.8307C9.05638 36.8307 8.97013 37.0895 8.88388 37.5207C8.71137 37.8658 8.4526 38.3833 8.2801 38.8146Z" fill="#FFCC00"/>
<path d="M0.172509 36.831C0 35.5372 0 34.1571 0 32.8633H0.0862543C0.0862543 34.1571 0.0862543 35.4509 0.258763 36.7447L0.172509 36.831Z" fill="#FFCC00"/>
<path d="M9.05696 36.8317H8.9707C9.05696 35.7967 9.22947 34.7616 9.40197 33.7266L9.48823 33.8128C9.40197 34.7616 9.14321 35.7967 9.05696 36.8317Z" fill="#FFCC00"/>
<path d="M9.22935 28.119C8.02179 29.4129 5.86543 28.9816 4.91663 33.6393C4.83038 34.1568 4.65787 35.0194 4.57162 35.8819C4.48536 35.0194 4.48536 34.1568 4.48536 33.6393C4.48536 28.9816 2.84653 28.5503 2.24275 26.4802C2.07024 25.8764 2.07024 25.2726 2.07024 24.7551C2.07024 24.2376 2.07024 23.8926 2.07024 23.8926C1.81148 24.4964 1.55272 25.1001 1.38021 25.7039C1.2077 26.3077 1.12145 26.9115 0.948937 27.429C0.948937 27.9465 0.862682 28.4641 0.776428 29.0678C0.776428 29.5854 0.690174 30.1029 0.690174 30.6204C0.60392 32.6043 1.12145 34.2431 1.55272 35.6232C2.1565 37.0032 2.67402 38.1245 3.2778 39.0733C3.88158 40.0221 4.39911 40.8847 4.83038 41.661H4.91663C5.08914 40.7984 5.52041 39.8496 5.95169 38.9008C6.38296 37.952 7.07299 36.917 7.59052 35.7094C8.79808 33.3806 9.83313 30.6204 10.6094 26.3077C10.6094 26.3077 10.4369 26.5665 10.1781 26.9115C9.91938 27.3428 9.57437 27.774 9.22935 28.119Z" fill="#FFCC00"/>
<path d="M2.07031 23.8069C2.32908 22.5131 2.67409 21.3055 3.10536 20.0117H3.19162C2.8466 21.2193 2.41533 22.5131 2.15657 23.8069H2.07031Z" fill="#FFCC00"/>
<path d="M10.6953 26.3936C10.9541 25.3585 11.4716 24.4097 11.9029 23.4609L11.9891 23.5472C11.4716 24.496 11.0403 25.4448 10.6953 26.3936Z" fill="#FFCC00"/>
<path d="M12.0749 19.2345C11.4711 19.6658 10.6948 19.9245 9.8323 20.3558C9.40103 20.6146 8.96976 20.8733 8.53849 21.2183C8.10722 21.5634 7.67595 22.0809 7.24468 22.6847C7.33093 21.9084 7.33093 21.3046 7.24468 20.7008C7.24468 20.097 7.15842 19.5795 7.07217 19.1482C6.89966 18.1132 6.6409 17.2506 6.55464 16.3881C6.55464 15.2668 6.98591 13.8867 6.98591 13.8867C5.60584 15.7843 4.7433 17.6819 4.22578 19.407C3.7945 21.1321 3.53574 22.6847 3.622 24.0647C3.70825 25.4448 3.88076 26.6524 4.22578 27.6874C4.57079 28.7225 4.7433 29.6713 5.08832 30.5338C5.51959 29.8438 6.20962 29.0675 6.89966 28.2912C7.58969 27.5149 8.36598 26.7386 9.14227 25.7898C9.83231 24.841 10.7811 23.806 11.4711 22.5121C12.3337 21.2183 13.0237 19.752 13.8 17.9407C13.8863 17.7682 13.0237 18.717 12.0749 19.2345Z" fill="#FFCC00"/>
<path d="M6.98633 13.8874C7.50385 12.6798 8.10763 11.6447 8.71141 10.5234H8.79767C8.19389 11.6447 7.50385 12.6798 7.07258 13.8874H6.98633Z" fill="#FFCC00"/>
<path d="M13.8867 17.8555C14.4042 16.9067 15.0943 16.0442 15.7843 15.1816L15.8706 15.2679C15.1805 16.1304 14.4905 16.9067 13.8867 17.8555Z" fill="#FFCC00"/>
<path d="M14.5771 12.8524C13.7146 13.2837 11.9895 14.2325 10.7819 15.1813C11.2132 13.8012 11.3857 11.7311 11.4719 10.6961C11.6445 9.57475 12.2482 8.36719 12.2482 8.36719C11.6445 8.97097 11.1269 9.661 10.6094 10.2648C10.1781 10.8686 9.74686 11.5586 9.40184 12.1624C8.71181 13.3699 8.28054 14.4912 8.02178 15.5263C7.84927 16.0438 7.76301 16.5613 7.67676 16.9926C7.76301 17.4239 7.76301 17.9414 7.76301 18.3727C7.76301 19.2352 7.84927 20.0978 7.93552 20.7878C8.5393 20.3565 9.22934 19.9253 9.91937 19.4077C10.2644 19.149 10.6094 18.8902 10.9544 18.5452C11.2994 18.2864 11.6445 17.9414 12.0757 17.5964C12.7658 16.9064 13.4558 16.0438 14.3183 15.095C14.6634 14.5775 15.0946 14.06 15.4396 13.4562C15.8709 12.8524 16.3022 12.2486 16.7335 11.5586C16.561 11.6449 15.6122 12.4211 14.5771 12.8524Z" fill="#FFCC00"/>
<path d="M12.248 8.28062C12.5931 7.76309 12.9381 7.24557 13.2831 6.72804L14.4044 5.26172H14.4907L13.3694 6.72804C13.0243 7.24557 12.6793 7.76309 12.3343 8.28062H12.248Z" fill="#FFCC00"/>
<path d="M16.6478 11.7315L16.5615 11.6453C16.9065 11.214 17.3378 10.7827 17.6828 10.4377L18.8904 9.31641V9.40266L17.6828 10.524C17.3378 10.869 16.9928 11.3003 16.6478 11.7315Z" fill="#FFCC00"/>
<path d="M15.267 6.29656C14.8357 6.81409 14.4907 7.24536 14.1457 7.84914C13.8007 8.36667 13.5419 8.97045 13.3694 9.48797C12.9381 10.6093 12.5931 11.7306 12.5068 12.6794C13.3694 12.1619 14.3182 11.6443 15.267 10.9543C15.6982 10.6093 16.2158 10.2643 16.647 9.83299C17.0783 9.48797 17.5096 9.0567 17.9409 8.53918C18.4584 7.9354 18.8897 7.33162 19.2347 6.72784C19.5797 6.12406 19.9247 5.52028 20.2697 4.83024C20.8735 3.45017 21.9948 1.89759 24.2374 0C21.9948 1.89759 20.356 2.76014 18.9759 3.62268C18.2859 3.9677 17.6821 4.31272 16.9921 4.74399C16.3883 5.17526 15.8708 5.60653 15.267 6.29656Z" fill="#FFCC00"/>
<path d="M10.0057 56.7549C10.1782 57.1862 10.6095 58.0487 10.9545 58.825C10.437 58.135 9.91948 57.3587 9.66072 56.9274C9.05694 55.9786 8.45316 55.2023 7.93563 54.6848C7.41811 54.1673 6.90058 53.8223 6.46931 53.5635C5.52051 53.046 4.65797 52.8735 3.88168 52.1834C3.45041 51.7522 3.01914 51.2346 2.76037 50.8896C2.58786 50.7171 2.50161 50.4584 2.41536 50.3721C2.3291 50.1996 2.3291 50.1133 2.3291 50.1133C2.58786 51.4071 3.01914 52.6147 3.36415 53.6498C3.79542 54.6848 4.31295 55.6336 4.83048 56.4099C5.348 57.1862 5.95178 57.9625 6.46931 58.5663C7.07309 59.17 7.67687 59.6876 8.19439 60.1188C10.5233 61.8439 12.6796 62.534 14.1459 63.569C16.1298 66.1566 18.3724 68.4855 20.8738 70.4693C23.3752 72.4532 26.2215 74.1783 29.3267 75.2996L29.5855 74.5233C26.5666 73.5745 23.7202 71.9357 21.2188 70.0381C18.6312 68.1405 16.3886 65.8979 14.3184 63.3965C13.7147 61.7577 13.8009 59.5151 13.4559 56.9274C13.3697 56.2374 13.2834 55.6336 13.1971 54.8573C13.1109 54.1673 12.9384 53.391 12.6796 52.6147C12.4209 51.8384 12.2483 50.9759 11.9033 50.1996C11.6446 49.337 11.2133 48.3883 10.782 47.4395C10.9545 49.5958 10.2645 50.5446 9.83323 51.6659C9.57446 52.1834 9.40195 52.7872 9.40195 53.5635C9.22945 54.4261 9.48821 55.3749 10.0057 56.7549Z" fill="#FFCC00"/>
</svg>
