<svg width="24" height="24" viewBox="0 0 24 24" fill="none" xmlns="http://www.w3.org/2000/svg">
<path d="M12 14.7363C10.4812 14.7363 9.25 15.9676 9.25 17.4863V22.9863H14.75V17.4863C14.75 15.9676 13.5188 14.7363 12 14.7363Z" fill="#4478FF"/>
<path d="M16.5833 17.4863V22.9863H20.25C21.7688 22.9863 23 21.7551 23 20.2363V11.8754C23.0002 11.3992 22.8151 10.9416 22.4839 10.5994L14.6941 2.17795C13.3196 0.690805 10.9998 0.599497 9.51267 1.97398C9.44203 2.03929 9.37396 2.10731 9.30869 2.17795L1.5326 10.5966C1.19134 10.9402 0.999871 11.4049 1 11.8891V20.2363C1 21.7551 2.23123 22.9863 3.75 22.9863H7.41665V17.4863C7.4338 14.9867 9.45191 12.9455 11.8885 12.8868C14.4067 12.826 16.5641 14.9019 16.5833 17.4863Z" fill="#4478FF"/>
<path d="M12 14.7363C10.4812 14.7363 9.25 15.9676 9.25 17.4863V22.9863H14.75V17.4863C14.75 15.9676 13.5188 14.7363 12 14.7363Z" fill="#4478FF"/>
</svg>
