<svg width="24" height="24" viewBox="0 0 24 24" fill="none" xmlns="http://www.w3.org/2000/svg">
<path d="M23 9.25009C22.8813 9.91569 22.6168 10.5468 22.2254 11.0981L14.1743 21.9332C13.9191 22.263 13.5922 22.5304 13.2184 22.7152C12.8445 22.9 12.4336 22.9974 12.0166 22.9999C11.5995 23.0025 11.1874 22.9102 10.8113 22.73C10.4353 22.5498 10.1051 22.2864 9.84583 21.9598L1.75533 10.9001C1.41166 10.4021 1.16905 9.84152 1.04125 9.25009H6.78692L11.1438 20.5793C11.2101 20.7526 11.3275 20.9018 11.4804 21.007C11.6332 21.1122 11.8144 21.1685 12 21.1685C12.1856 21.1685 12.3668 21.1122 12.5196 21.007C12.6725 20.9018 12.7899 20.7526 12.8562 20.5793L17.2131 9.25009H23ZM17.225 7.41674H22.9606C22.8211 6.79653 22.5536 6.21232 22.175 5.70164L19.8302 2.53544C19.4906 2.06083 19.0428 1.67399 18.5239 1.40697C18.005 1.13995 17.43 1.00044 16.8464 1H14.8298L17.225 7.41674ZM11.1823 1L8.74492 7.41674H15.2642L12.8754 1H11.1823ZM6.78417 7.41674L9.22067 1H7.09217C6.51355 0.999432 5.94306 1.13615 5.42755 1.39893C4.91204 1.6617 4.46623 2.04304 4.12675 2.5116L1.85983 5.48347C1.42607 6.05184 1.13158 6.71397 1 7.41674H6.78417ZM15.2487 9.25009H8.75133L12 17.6964L15.2487 9.25009Z" fill="#4478FF"/>
</svg>
