<svg width="29" height="71" viewBox="0 0 29 71" fill="none" xmlns="http://www.w3.org/2000/svg">
<path d="M18.1006 44.8104C18.2613 43.8463 18.5023 42.8821 18.5827 41.918H18.663C18.5827 42.8821 18.3416 43.8463 18.1809 44.8104H18.1006Z" fill="#FFCC00"/>
<path d="M26.0557 47.2205C26.377 46.0153 26.8591 44.8905 27.1805 43.7656L27.2609 43.846C26.9395 44.9708 26.4574 46.0957 26.0557 47.2205Z" fill="#FFCC00"/>
<path d="M27.1003 37.0159C26.0558 38.7031 24.3685 38.6228 23.1633 42.8008C23.0026 43.2829 22.7616 44.0864 22.4402 44.8095C22.6009 44.006 22.6813 43.2025 22.7616 42.7205C23.1633 38.3818 21.1547 38.2211 20.4316 36.6945C20.1905 36.2927 20.0298 35.8107 19.8691 35.4089C19.7084 35.0072 19.7084 34.7662 19.7084 34.7662C19.2264 38.7835 19.387 41.5153 19.7888 43.9257C19.8691 44.4881 20.0298 45.1309 20.1102 45.6129C20.1905 46.1754 20.2709 46.6574 20.4316 47.1395C20.5119 47.6216 20.5922 48.1037 20.6726 48.5858C20.6726 49.0678 20.6726 49.4696 20.6726 49.8713H20.7529C20.994 49.5499 21.3154 49.2285 21.7171 48.9071C22.0385 48.5858 22.4402 48.2644 22.8419 47.8626C23.2437 47.5413 23.6454 47.1395 24.0471 46.6574C24.4489 46.2557 24.8506 45.7736 25.2523 45.2112C25.6541 44.6488 26.0558 44.0864 26.4575 43.3632C26.8593 42.6401 27.1807 41.917 27.4217 41.0332C27.6627 40.1494 27.9038 39.1852 27.9841 38.1407C28.0645 37.5783 28.0645 37.0159 28.0645 36.4534C28.0645 35.891 27.9841 35.2482 27.9841 34.6055C27.9841 34.6055 27.9038 34.9269 27.7431 35.4089C27.5824 35.9714 27.4217 36.5338 27.1003 37.0159Z" fill="#FFCC00"/>
<path d="M19.6283 34.7658C19.5479 33.8016 19.3873 32.8375 19.2266 31.8733L19.3069 31.793C19.4676 32.7571 19.6283 33.7213 19.7086 34.6854L19.6283 34.7658Z" fill="#FFCC00"/>
<path d="M27.9846 34.7663L27.9043 34.6859C28.065 33.4807 27.9846 32.2755 28.065 31.0703H28.1453C28.065 32.2755 28.1453 33.5611 27.9846 34.7663Z" fill="#FFCC00"/>
<path d="M25.9762 25.0449C25.4138 26.9732 23.8872 27.3749 23.8872 31.7136C23.8872 32.1957 23.8872 32.9992 23.8069 33.8027C23.7265 32.9992 23.5658 32.1957 23.4855 31.7136C22.6017 27.4553 20.6734 27.857 19.4682 26.5715C19.1468 26.2501 18.8254 25.8484 18.5843 25.527C18.3433 25.2056 18.1826 24.9645 18.1826 24.9645C18.9057 28.9819 19.7895 31.4726 20.9947 33.7223C21.4768 34.7668 22.1196 35.8113 22.5213 36.6951C22.9231 37.5789 23.3248 38.4628 23.4855 39.2662H23.5658C23.9676 38.4628 24.3693 37.7396 25.0121 36.8558C25.5745 35.972 26.1369 34.9275 26.619 33.642C27.0207 32.3564 27.4225 30.8298 27.4225 28.9819C27.4225 28.4998 27.4225 28.0177 27.3421 27.5356C27.2618 27.0536 27.1814 26.5715 27.1011 26.009C27.0207 25.4466 26.86 24.9645 26.6993 24.4021C26.5386 23.8397 26.2976 23.2773 26.0566 22.7148C26.0566 22.7148 26.0566 23.0362 26.0566 23.5183C26.1369 23.92 26.1369 24.4825 25.9762 25.0449Z" fill="#FFCC00"/>
<path d="M18.1827 25.0443C17.8614 24.1605 17.3793 23.2767 16.9775 22.3928L17.0579 22.3125C17.4596 23.1963 17.9417 24.0801 18.1827 25.0443Z" fill="#FFCC00"/>
<path d="M26.1363 22.6349H26.056C25.8149 21.4297 25.4935 20.3048 25.0918 19.0996H25.1721C25.5739 20.3048 25.9756 21.4297 26.1363 22.6349Z" fill="#FFCC00"/>
<path d="M21.9578 15.7251C21.9578 16.5286 21.7168 17.332 21.5561 18.2159C21.4757 18.6979 21.3954 19.18 21.3954 19.6621C21.315 20.2245 21.315 20.7869 21.3954 21.5101C20.9937 20.9476 20.5919 20.5459 20.1902 20.1442C19.7885 19.8228 19.3867 19.5817 18.985 19.3407C18.1815 18.939 17.4584 18.6979 16.896 18.2962C16.0122 17.8141 15.2891 17.0107 15.2891 17.0107C16.0925 18.6979 16.7353 20.1442 17.4584 21.269C18.1012 22.4742 18.9047 23.4384 19.6278 24.3222C20.3509 25.206 21.074 25.9291 21.7168 26.6522C22.3596 27.3754 23.0023 28.0181 23.4041 28.7412C23.6451 27.9378 23.8861 27.1343 24.2075 26.0898C24.5289 25.1257 24.6896 24.0008 24.7699 22.7153C24.8503 21.4297 24.6093 19.9835 24.2075 18.3765C23.7254 16.7696 22.922 15.002 21.6364 13.2344C21.5561 13.3951 21.9578 14.6806 21.9578 15.7251Z" fill="#FFCC00"/>
<path d="M15.2073 17.0904C14.6449 16.2869 14.0021 15.4834 13.3594 14.68L13.4397 14.5996C14.0021 15.4031 14.7253 16.2065 15.2073 17.0904Z" fill="#FFCC00"/>
<path d="M21.5545 13.3952H21.4741C20.992 12.2704 20.4296 11.3062 19.8672 10.2617H19.9475C20.51 11.2259 21.0724 12.2704 21.5545 13.3952Z" fill="#FFCC00"/>
<path d="M17.3781 10.3409C17.4585 11.305 17.7799 13.2333 18.0209 14.5189C17.0568 13.5547 15.2891 12.7513 14.4857 12.3495C13.5215 11.9478 12.6377 11.2247 12.6377 11.2247C13.0394 11.8675 13.4412 12.4299 13.8429 12.9923C14.1643 13.5547 14.566 14.0368 14.8874 14.5189C15.6105 15.4027 16.2533 16.2062 16.9764 16.8489C17.2978 17.1703 17.6192 17.4917 18.0209 17.7327C18.3423 17.9738 18.6637 18.2952 18.9851 18.5362C19.6278 19.0183 20.2706 19.42 20.833 19.8218C20.9134 19.0986 20.9937 18.3755 20.9937 17.5721C20.9937 17.1703 20.9937 16.6882 20.9134 16.2865C20.833 15.8044 20.7527 15.4027 20.592 14.9206C20.351 13.9565 19.9492 12.8316 19.3065 11.7871C18.9851 11.2247 18.6637 10.6623 18.1816 10.0195C17.6995 9.45706 17.2174 8.89463 16.655 8.25186C16.655 8.17151 17.2174 9.37671 17.3781 10.3409Z" fill="#FFCC00"/>
<path d="M12.6361 11.3845C12.3148 10.9827 11.913 10.581 11.5916 10.2596L10.4668 9.21511V9.13477L11.5916 10.1793C11.9934 10.5007 12.3148 10.9024 12.6361 11.3041V11.3845Z" fill="#FFCC00"/>
<path d="M16.7345 8.1715H16.6542C16.3328 7.68942 16.0114 7.20734 15.69 6.72527L14.6455 5.35938H14.7259L15.7704 6.72527C16.0917 7.20734 16.4131 7.68942 16.7345 8.1715Z" fill="#FFCC00"/>
<path d="M11.4327 8.41328C11.8344 8.81502 12.2361 9.21675 12.6379 9.61848C13.0396 10.0202 13.4413 10.3416 13.9234 10.663C14.8072 11.3058 15.691 11.7878 16.4945 12.2699C16.4142 11.3058 16.0928 10.3416 15.691 9.2971C15.45 8.81502 15.209 8.25259 14.9679 7.77051C14.6465 7.28843 14.3252 6.80636 13.9234 6.32428C13.361 5.68151 12.8789 5.27977 12.3165 4.87804C11.7541 4.47631 11.1113 4.23527 10.4685 3.83354C9.18297 3.11042 7.65639 2.30695 5.56738 0.458984C7.65639 2.22661 8.62055 3.67284 9.34366 4.95839C9.66505 5.60116 9.98644 6.16358 10.3078 6.72601C10.6292 7.28843 10.9506 7.85086 11.4327 8.41328Z" fill="#FFCC00"/>
<path d="M19.145 53.568C18.904 53.9698 18.4219 54.6126 17.9398 55.3357C18.2612 54.6126 18.5826 53.8091 18.8236 53.4074C19.2253 52.3628 19.386 51.5594 19.4664 50.9166C19.4664 50.2738 19.386 49.7114 19.2253 49.2293C18.904 48.3455 18.4219 47.7028 18.2612 46.8993C18.1808 46.4172 18.1005 45.9351 18.1005 45.5334C18.1005 45.3727 18.1005 45.1317 18.1005 45.0513C18.1005 44.8906 18.1005 44.8906 18.1005 44.8906C17.6988 45.8548 17.297 46.6582 17.056 47.4617C16.7346 48.2652 16.4936 49.0686 16.3329 49.7114C16.0918 50.4345 16.0115 51.1577 15.8508 51.8004C15.6901 52.4432 15.6098 53.086 15.6098 53.7287C15.2884 56.1391 15.3687 58.1478 14.8063 59.7547C12.878 62.0848 10.789 64.1738 8.37857 65.9414C5.96818 67.709 3.39709 69.2356 0.584961 70.1194L0.826 70.8425C3.71847 69.798 6.28956 68.1911 8.69996 66.3431C11.03 64.4148 13.119 62.2455 14.967 59.9154C16.3329 58.9513 18.3415 58.3888 20.5109 56.7016C21.0733 56.2998 21.5554 55.8177 22.1178 55.2553C22.6802 54.6929 23.1623 54.0501 23.6444 53.2467C24.1265 52.5235 24.6086 51.6397 25.0103 50.6756C25.412 49.7114 25.7334 48.5866 25.9744 47.3814C24.7693 49.5507 23.7247 49.8721 22.5999 50.3542C22.0375 50.5952 21.5554 50.8363 20.993 51.3183C20.5109 51.6397 19.8681 52.3628 19.145 53.568Z" fill="#FFCC00"/>
</svg>
