<svg width="24" height="24" viewBox="0 0 24 24" fill="none" xmlns="http://www.w3.org/2000/svg">
<path d="M2.37434 17.5C3.14043 18.816 4.83935 19.2681 6.16896 18.5099C6.16987 18.5093 6.17074 18.5088 6.17165 18.5083L6.58378 18.2727C7.36176 18.9315 8.25601 19.4424 9.22149 19.7797V20.25C9.22149 21.7688 10.4655 23 12 23C13.5345 23 14.7785 21.7688 14.7785 20.25V19.7798C15.7441 19.4419 16.6384 18.9304 17.4162 18.2709L17.8302 18.5074C19.1601 19.2668 20.8603 18.8154 21.6275 17.4991C22.3948 16.1828 21.9387 14.5001 20.6087 13.7407L20.1975 13.5061C20.3826 12.5091 20.3826 11.4872 20.1975 10.4902L20.6087 10.2556C21.9386 9.49617 22.3948 7.81351 21.6275 6.49721C20.8603 5.18095 19.1602 4.72947 17.8302 5.48886L17.4181 5.72446C16.6393 5.06648 15.7445 4.55652 14.7785 4.22025V3.75C14.7785 2.23123 13.5345 1 12 1C10.4655 1 9.22149 2.23123 9.22149 3.75V4.22025C8.25588 4.55811 7.36159 5.06961 6.58378 5.7291L6.16978 5.4917C4.83983 4.73227 3.13973 5.18374 2.37248 6.5C1.60522 7.81626 2.06133 9.49896 3.39128 10.2583L3.80249 10.493C3.61738 11.4899 3.61738 12.5119 3.80249 13.5088L3.39128 13.7435C2.06502 14.5049 1.61038 16.1843 2.37434 17.5ZM12 8.33335C14.046 8.33335 15.7047 9.97497 15.7047 12C15.7047 14.025 14.046 15.6667 12 15.6667C9.95398 15.6667 8.29534 14.025 8.29534 12C8.29534 9.97497 9.95398 8.33335 12 8.33335Z" fill="#4478FF"/>
</svg>
