<svg width="21" height="20" viewBox="0 0 21 20" fill="none" xmlns="http://www.w3.org/2000/svg">
<g clip-path="url(#clip0_471_9651)">
<path d="M16.6105 12.2227C15.9804 12.2232 15.3599 12.377 14.8026 12.6709C14.2452 12.9647 13.7677 13.3898 13.4113 13.9094L7.98716 11.4602C8.37242 10.5299 8.37392 9.48495 7.99132 8.55354L13.408 6.09187C13.9362 6.85584 14.7208 7.40518 15.6193 7.64024C16.5179 7.87531 17.4709 7.78054 18.3056 7.37312C19.1403 6.9657 19.8013 6.27262 20.1687 5.41959C20.5361 4.56657 20.5857 3.6101 20.3083 2.72368C20.0309 1.83727 19.4451 1.07962 18.6569 0.588169C17.8688 0.0967179 16.9306 -0.0959833 16.0126 0.0450196C15.0946 0.186023 14.2575 0.65139 13.6532 1.35671C13.0489 2.06203 12.7174 2.96058 12.7188 3.88937C12.7224 4.10921 12.7447 4.32834 12.7855 4.54437L7.02716 7.16104C6.47411 6.64289 5.78175 6.29757 5.03514 6.16751C4.28853 6.03745 3.52018 6.1283 2.8245 6.42892C2.12882 6.72954 1.5361 7.22682 1.11916 7.85967C0.702215 8.49253 0.479214 9.23339 0.477548 9.99125C0.475883 10.7491 0.695627 11.4909 1.10978 12.1256C1.52394 12.7603 2.11447 13.2602 2.80882 13.5639C3.50318 13.8675 4.27112 13.9618 5.01829 13.835C5.76547 13.7082 6.45934 13.3659 7.01466 12.8502L12.788 15.4569C12.7479 15.6727 12.7259 15.8915 12.7222 16.111C12.722 16.8803 12.95 17.6324 13.3773 18.2721C13.8045 18.9118 14.4119 19.4104 15.1226 19.7048C15.8333 19.9993 16.6154 20.0764 17.3699 19.9264C18.1244 19.7763 18.8174 19.4059 19.3614 18.8619C19.9053 18.318 20.2758 17.6249 20.4258 16.8704C20.5758 16.1159 20.4988 15.3339 20.2043 14.6232C19.9098 13.9125 19.4112 13.3051 18.7715 12.8778C18.1318 12.4505 17.3798 12.2225 16.6105 12.2227ZM16.6105 1.66687C17.0501 1.66671 17.4799 1.79692 17.8455 2.04103C18.2111 2.28514 18.4961 2.63219 18.6644 3.03828C18.8328 3.44438 18.8769 3.89127 18.7912 4.32245C18.7056 4.75363 18.494 5.14972 18.1832 5.46062C17.8724 5.77153 17.4764 5.98328 17.0452 6.06911C16.6141 6.15493 16.1672 6.11097 15.761 5.94277C15.3548 5.77458 15.0077 5.48972 14.7634 5.12421C14.5192 4.75871 14.3888 4.32898 14.3888 3.88937C14.3893 3.30021 14.6235 2.73529 15.04 2.31861C15.4565 1.90193 16.0213 1.66754 16.6105 1.66687ZM4.38883 12.2227C3.94922 12.2229 3.51944 12.0927 3.15384 11.8486C2.78825 11.6044 2.50325 11.2574 2.33491 10.8513C2.16657 10.4452 2.12243 9.99831 2.2081 9.56713C2.29376 9.13595 2.50536 8.73986 2.81615 8.42896C3.12694 8.11805 3.52295 7.9063 3.9541 7.82047C4.38524 7.73465 4.83216 7.77861 5.23831 7.9468C5.64447 8.115 5.99163 8.39986 6.23588 8.76536C6.48012 9.13087 6.61049 9.5606 6.61049 10.0002C6.60983 10.5893 6.37558 11.1541 5.9591 11.5707C5.54262 11.9874 4.97792 12.2218 4.38883 12.2227ZM16.6105 18.3335C16.1709 18.3335 15.7412 18.2032 15.3757 17.959C15.0102 17.7148 14.7254 17.3677 14.5572 16.9616C14.389 16.5554 14.3449 16.1086 14.4307 15.6775C14.5165 15.2463 14.7281 14.8503 15.0389 14.5395C15.3498 14.2287 15.7458 14.017 16.1769 13.9312C16.608 13.8455 17.0549 13.8895 17.461 14.0577C17.8671 14.2259 18.2142 14.5108 18.4584 14.8763C18.7026 15.2418 18.833 15.6715 18.833 16.111C18.8326 16.7003 18.5983 17.2654 18.1816 17.6821C17.7648 18.0988 17.1998 18.3331 16.6105 18.3335Z" fill="#CCD6DE"/>
</g>
<defs>
<clipPath id="clip0_471_9651">
<rect width="20" height="20" fill="white" transform="translate(0.5)"/>
</clipPath>
</defs>
</svg>
