<svg width="24" height="24" viewBox="0 0 24 24" fill="none" xmlns="http://www.w3.org/2000/svg">
<g clip-path="url(#clip0_430_13672)">
<path d="M5.125 17.041H2.83333C2.3471 17.041 1.88079 17.2342 1.53697 17.578C1.19315 17.9218 1 18.3881 1 18.8743L1 21.166C1 21.6522 1.19315 22.1186 1.53697 22.4624C1.88079 22.8062 2.3471 22.9993 2.83333 22.9993H5.125C5.61123 22.9993 6.07755 22.8062 6.42136 22.4624C6.76518 22.1186 6.95833 21.6522 6.95833 21.166V18.8743C6.95833 18.3881 6.76518 17.9218 6.42136 17.578C6.07755 17.2342 5.61123 17.041 5.125 17.041ZM5.125 21.166H2.83333V18.8743H5.125V21.166Z" fill="#CCD6DE"/>
<path d="M21.167 17.043H18.8753C18.3891 17.043 17.9228 17.2361 17.579 17.5799C17.2351 17.9238 17.042 18.3901 17.042 18.8763V21.168C17.042 21.6542 17.2351 22.1205 17.579 22.4643C17.9228 22.8081 18.3891 23.0013 18.8753 23.0013H21.167C21.6532 23.0013 22.1195 22.8081 22.4633 22.4643C22.8072 22.1205 23.0003 21.6542 23.0003 21.168V18.8763C23.0003 18.3901 22.8072 17.9238 22.4633 17.5799C22.1195 17.2361 21.6532 17.043 21.167 17.043ZM21.167 21.168H18.8753V18.8763H21.167V21.168Z" fill="#CCD6DE"/>
<path d="M5.125 9.02148H2.83333C2.3471 9.02148 1.88079 9.21464 1.53697 9.55845C1.19315 9.90227 1 10.3686 1 10.8548L1 13.1465C1 13.6327 1.19315 14.099 1.53697 14.4428C1.88079 14.7867 2.3471 14.9798 2.83333 14.9798H5.125C5.61123 14.9798 6.07755 14.7867 6.42136 14.4428C6.76518 14.099 6.95833 13.6327 6.95833 13.1465V10.8548C6.95833 10.3686 6.76518 9.90227 6.42136 9.55845C6.07755 9.21464 5.61123 9.02148 5.125 9.02148ZM5.125 13.1465H2.83333V10.8548H5.125V13.1465Z" fill="#CCD6DE"/>
<path d="M21.167 9.01953H18.8753C18.3891 9.01953 17.9228 9.21269 17.579 9.5565C17.2351 9.90032 17.042 10.3666 17.042 10.8529V13.1445C17.042 13.6308 17.2351 14.0971 17.579 14.4409C17.9228 14.7847 18.3891 14.9779 18.8753 14.9779H21.167C21.6532 14.9779 22.1195 14.7847 22.4633 14.4409C22.8072 14.0971 23.0003 13.6308 23.0003 13.1445V10.8529C23.0003 10.3666 22.8072 9.90032 22.4633 9.5565C22.1195 9.21269 21.6532 9.01953 21.167 9.01953ZM21.167 13.1445H18.8753V10.8529H21.167V13.1445Z" fill="#CCD6DE"/>
<path d="M5.125 1H2.83333C2.3471 1 1.88079 1.19315 1.53697 1.53697C1.19315 1.88079 1 2.3471 1 2.83333L1 5.125C1 5.61123 1.19315 6.07755 1.53697 6.42136C1.88079 6.76518 2.3471 6.95833 2.83333 6.95833H5.125C5.61123 6.95833 6.07755 6.76518 6.42136 6.42136C6.76518 6.07755 6.95833 5.61123 6.95833 5.125V2.83333C6.95833 2.3471 6.76518 1.88079 6.42136 1.53697C6.07755 1.19315 5.61123 1 5.125 1V1ZM5.125 5.125H2.83333V2.83333H5.125V5.125Z" fill="#CCD6DE"/>
<path d="M13.1455 17.043H10.8538C10.3676 17.043 9.90129 17.2361 9.55748 17.5799C9.21366 17.9238 9.02051 18.3901 9.02051 18.8763V21.168C9.02051 21.6542 9.21366 22.1205 9.55748 22.4643C9.90129 22.8081 10.3676 23.0013 10.8538 23.0013H13.1455C13.6317 23.0013 14.098 22.8081 14.4419 22.4643C14.7857 22.1205 14.9788 21.6542 14.9788 21.168V18.8763C14.9788 18.3901 14.7857 17.9238 14.4419 17.5799C14.098 17.2361 13.6317 17.043 13.1455 17.043ZM13.1455 21.168H10.8538V18.8763H13.1455V21.168Z" fill="#CCD6DE"/>
<path d="M13.1455 9.01953H10.8538C10.3676 9.01953 9.90129 9.21269 9.55748 9.5565C9.21366 9.90032 9.02051 10.3666 9.02051 10.8529V13.1445C9.02051 13.6308 9.21366 14.0971 9.55748 14.4409C9.90129 14.7847 10.3676 14.9779 10.8538 14.9779H13.1455C13.6317 14.9779 14.098 14.7847 14.4419 14.4409C14.7857 14.0971 14.9788 13.6308 14.9788 13.1445V10.8529C14.9788 10.3666 14.7857 9.90032 14.4419 9.5565C14.098 9.21269 13.6317 9.01953 13.1455 9.01953ZM13.1455 13.1445H10.8538V10.8529H13.1455V13.1445Z" fill="#CCD6DE"/>
<path d="M13.1455 1H10.8538C10.3676 1 9.90129 1.19315 9.55748 1.53697C9.21366 1.88079 9.02051 2.3471 9.02051 2.83333V5.125C9.02051 5.61123 9.21366 6.07755 9.55748 6.42136C9.90129 6.76518 10.3676 6.95833 10.8538 6.95833H13.1455C13.6317 6.95833 14.098 6.76518 14.4419 6.42136C14.7857 6.07755 14.9788 5.61123 14.9788 5.125V2.83333C14.9788 2.3471 14.7857 1.88079 14.4419 1.53697C14.098 1.19315 13.6317 1 13.1455 1V1ZM13.1455 5.125H10.8538V2.83333H13.1455V5.125Z" fill="#CCD6DE"/>
<path d="M21.167 1H18.8753C18.3891 1 17.9228 1.19315 17.579 1.53697C17.2351 1.88079 17.042 2.3471 17.042 2.83333V5.125C17.042 5.61123 17.2351 6.07755 17.579 6.42136C17.9228 6.76518 18.3891 6.95833 18.8753 6.95833H21.167C21.6532 6.95833 22.1195 6.76518 22.4633 6.42136C22.8072 6.07755 23.0003 5.61123 23.0003 5.125V2.83333C23.0003 2.3471 22.8072 1.88079 22.4633 1.53697C22.1195 1.19315 21.6532 1 21.167 1V1ZM21.167 5.125H18.8753V2.83333H21.167V5.125Z" fill="#CCD6DE"/>
</g>
<defs>
<clipPath id="clip0_430_13672">
<rect width="22" height="22" fill="white" transform="translate(1 1)"/>
</clipPath>
</defs>
</svg>
